<svg width="149" height="145" viewBox="0 0 149 145" fill="none" xmlns="http://www.w3.org/2000/svg">
<rect x="0.554658" y="15.9933" width="133" height="129" rx="20.5" transform="rotate(-6.66569 0.554658 15.9933)" fill="#FBFBFB" fill-opacity="0.82" stroke="#373737"/>
<path d="M31.3568 90.58L31.2752 89.8816L36.1511 89.3118L36.2328 90.0102L34.1884 90.2491L34.8666 96.0519L34.0793 96.1439L33.4012 90.3411L31.3568 90.58ZM39.3734 95.6282C38.9036 95.6831 38.4862 95.6268 38.1213 95.4592C37.7582 95.2893 37.4627 95.0278 37.2348 94.6747C37.0088 94.3193 36.8666 93.8918 36.8082 93.3924C36.7498 92.8929 36.7894 92.4421 36.9269 92.0399C37.0662 91.6354 37.2874 91.307 37.5905 91.055C37.8954 90.8005 38.2679 90.6476 38.7081 90.5961C38.9621 90.5665 39.2178 90.5795 39.4753 90.6352C39.7328 90.6909 39.9743 90.8021 40.1997 90.9688C40.4249 91.1334 40.6159 91.3642 40.7729 91.6612C40.9299 91.9582 41.035 92.3342 41.0882 92.7892L41.1253 93.1067L37.3667 93.5459L37.2911 92.8983L40.2877 92.5481C40.2556 92.273 40.1718 92.034 40.0366 91.831C39.9034 91.6277 39.729 91.4754 39.5134 91.374C39.2999 91.2724 39.0577 91.2375 38.7868 91.2691C38.4884 91.304 38.2388 91.4082 38.0382 91.5818C37.8394 91.7531 37.6955 91.963 37.6066 92.2115C37.5176 92.46 37.4889 92.7186 37.5203 92.9874L37.5707 93.4191C37.6138 93.7873 37.7137 94.0921 37.8706 94.3333C38.0294 94.5722 38.2309 94.7449 38.475 94.8515C38.7189 94.956 38.9922 94.9906 39.2948 94.9552C39.4916 94.9322 39.6661 94.8839 39.8184 94.8104C39.9726 94.7344 40.1013 94.6336 40.2046 94.5078C40.3076 94.3799 40.381 94.2276 40.4247 94.0509L41.1722 94.1695C41.1247 94.4239 41.0219 94.6547 40.8638 94.862C40.7054 95.0671 40.5 95.237 40.2476 95.3716C39.995 95.5041 39.7036 95.5896 39.3734 95.6282ZM42.5201 95.1575L41.9503 90.2816L42.674 90.197L42.7601 90.9335L42.8109 90.9275C42.8716 90.6759 43.0096 90.4613 43.2248 90.2839C43.44 90.1064 43.6937 90.0006 43.9857 89.9665C44.0407 89.9601 44.1096 89.9531 44.1924 89.9456C44.2752 89.938 44.338 89.9339 44.3808 89.9332L44.4698 90.6951C44.4437 90.6917 44.3844 90.6889 44.2919 90.6869C44.2013 90.6825 44.1063 90.6861 44.0068 90.6977C43.7698 90.7254 43.564 90.7998 43.3893 90.9211C43.2166 91.0399 43.0864 91.1924 42.9988 91.3786C42.913 91.5624 42.883 91.7643 42.9087 91.9844L43.2693 95.0699L42.5201 95.1575ZM45.8461 94.7688L45.2763 89.8929L46 89.8083L46.0861 90.5448L46.1369 90.5388C46.1976 90.2872 46.3355 90.0726 46.5508 89.8952C46.766 89.7177 47.0196 89.6119 47.3117 89.5778C47.3667 89.5714 47.4356 89.5644 47.5184 89.5569C47.6012 89.5493 47.664 89.5452 47.7068 89.5445L47.7958 90.3064C47.7697 90.303 47.7104 90.3003 47.6179 90.2982C47.5273 90.2938 47.4323 90.2974 47.3328 90.309C47.0958 90.3367 46.89 90.4111 46.7153 90.5324C46.5426 90.6512 46.4124 90.8038 46.3248 90.9899C46.239 91.1737 46.2089 91.3756 46.2347 91.5957L46.5953 94.6813L45.8461 94.7688ZM50.6203 94.3267C50.3113 94.3628 50.0241 94.3374 49.7587 94.2504C49.493 94.1613 49.2731 94.0144 49.099 93.8095C48.9246 93.6024 48.8189 93.3402 48.7818 93.0228C48.7491 92.7434 48.7777 92.5106 48.8675 92.3242C48.957 92.1356 49.088 91.9809 49.2605 91.8599C49.433 91.7389 49.6275 91.6411 49.844 91.5665C50.0624 91.4895 50.2831 91.4229 50.5061 91.3668C50.7979 91.2941 51.0347 91.2375 51.2166 91.1969C51.4004 91.154 51.5318 91.1032 51.6107 91.0447C51.6918 90.9859 51.7253 90.8961 51.7112 90.7755L51.7082 90.7501C51.6716 90.4369 51.5575 90.2035 51.3658 90.05C51.1762 89.8963 50.9089 89.8396 50.564 89.8799C50.2063 89.9217 49.9351 90.0328 49.7502 90.2131C49.5653 90.3935 49.442 90.5773 49.3803 90.7647L48.6395 90.5939C48.7319 90.2828 48.8742 90.0323 49.0666 89.8425C49.2608 89.6503 49.4799 89.5067 49.7241 89.4117C49.9702 89.3143 50.2159 89.2513 50.4614 89.2226C50.618 89.2043 50.8001 89.2023 51.0077 89.2166C51.2172 89.2286 51.4239 89.2806 51.6277 89.3727C51.8336 89.4644 52.0136 89.6182 52.1675 89.8341C52.3214 90.0499 52.421 90.3515 52.4663 90.7387L52.8417 93.9513L52.0926 94.0388L52.0154 93.3785L51.9773 93.383C51.9389 93.4947 51.8675 93.6178 51.763 93.7523C51.6586 93.8868 51.513 94.0079 51.326 94.1155C51.1391 94.2232 50.9039 94.2936 50.6203 94.3267ZM50.6559 93.6404C50.9522 93.6057 51.1951 93.5184 51.3847 93.3782C51.5764 93.2378 51.7133 93.0695 51.7955 92.8733C51.8798 92.6768 51.91 92.477 51.8863 92.2738L51.8062 91.5882C51.7789 91.63 51.7131 91.673 51.6089 91.7174C51.5065 91.7594 51.3869 91.8002 51.2499 91.8398C51.1149 91.877 50.9827 91.9118 50.8535 91.944C50.7261 91.9739 50.6228 91.9989 50.5436 92.0189C50.3519 92.067 50.1747 92.1295 50.0121 92.2065C49.8514 92.281 49.7257 92.3805 49.6351 92.5047C49.5464 92.6267 49.5131 92.7828 49.5354 92.9733C49.5658 93.2336 49.6851 93.4192 49.8933 93.53C50.1033 93.6385 50.3575 93.6752 50.6559 93.6404ZM55.2226 92.772L55.2119 93.1208C55.2041 93.3663 55.1793 93.6309 55.1374 93.9147C55.0976 94.1982 55.0527 94.4662 55.0029 94.7187C54.953 94.9712 54.9111 95.1724 54.8771 95.3223L54.3057 95.3891C54.3174 95.2504 54.3325 95.0674 54.3509 94.84C54.3694 94.6126 54.3848 94.3587 54.3971 94.0784C54.4117 93.7999 54.4172 93.5161 54.4134 93.227L54.41 92.867L55.2226 92.772ZM61.2214 93.0749C60.7642 93.1283 60.358 93.0664 60.0026 92.8891C59.6473 92.7119 59.3586 92.4442 59.1365 92.0862C58.9145 91.7281 58.775 91.3057 58.7182 90.819C58.6603 90.3238 58.7002 89.8761 58.8379 89.4761C58.9775 89.0736 59.1989 88.7463 59.5019 88.4943C59.8068 88.2398 60.1794 88.0869 60.6195 88.0354C60.9624 87.9954 61.2788 88.0227 61.5687 88.1176C61.8587 88.2124 62.1049 88.3638 62.3072 88.5719C62.5096 88.7799 62.6497 89.0338 62.7277 89.3336L61.9785 89.4212C61.8954 89.2056 61.7454 89.0236 61.5286 88.8752C61.3136 88.7244 61.041 88.6683 60.7109 88.7069C60.4188 88.7411 60.1717 88.8472 59.9694 89.0253C59.769 89.201 59.6235 89.4336 59.5329 89.723C59.4442 90.0101 59.4213 90.3378 59.4643 90.706C59.5084 91.0827 59.606 91.4038 59.7571 91.6693C59.9104 91.9346 60.105 92.1317 60.3411 92.2607C60.5792 92.3895 60.8464 92.4366 61.1427 92.402C61.3374 92.3792 61.5102 92.3247 61.661 92.2384C61.8118 92.1521 61.9348 92.0391 62.03 91.8993C62.1252 91.7594 62.1857 91.5979 62.2115 91.4147L62.9606 91.3271C62.952 91.6199 62.8775 91.8914 62.7373 92.1416C62.5989 92.3894 62.4011 92.597 62.144 92.7644C61.8887 92.9294 61.5811 93.0329 61.2214 93.0749ZM64.6284 89.6006L64.9712 92.5337L64.222 92.6213L63.4622 86.1201L64.2114 86.0325L64.4904 88.4197L64.5539 88.4123C64.6387 88.1471 64.7868 87.9271 64.998 87.7522C65.2111 87.575 65.5092 87.464 65.8923 87.4192C66.2245 87.3804 66.5233 87.4131 66.7886 87.5172C67.0537 87.6192 67.2709 87.7987 67.4404 88.0556C67.6117 88.3102 67.7219 88.647 67.7708 89.066L68.1329 92.1642L67.3837 92.2518L67.0276 89.2043C66.9823 88.8171 66.8468 88.5294 66.621 88.3412C66.3971 88.1507 66.1085 88.0761 65.755 88.1174C65.5096 88.1461 65.2955 88.2237 65.1129 88.3501C64.9325 88.4764 64.7978 88.6455 64.7089 88.8575C64.6221 89.0693 64.5953 89.317 64.6284 89.6006ZM70.9516 91.9507C70.6427 91.9868 70.3555 91.9613 70.09 91.8744C69.8243 91.7853 69.6044 91.6383 69.4303 91.4334C69.256 91.2264 69.1502 90.9642 69.1132 90.6467C69.0805 90.3674 69.1091 90.1345 69.1988 89.9481C69.2883 89.7596 69.4194 89.6049 69.5918 89.4839C69.7643 89.3629 69.9588 89.2651 70.1754 89.1904C70.3938 89.1134 70.6144 89.0469 70.8374 88.9908C71.1292 88.9181 71.3661 88.8614 71.548 88.8209C71.7318 88.7779 71.8631 88.7272 71.9421 88.6686C72.0232 88.6098 72.0566 88.5201 72.0426 88.3995L72.0396 88.3741C72.003 88.0609 71.8888 87.8275 71.6971 87.674C71.5075 87.5202 71.2403 87.4635 70.8953 87.5038C70.5377 87.5456 70.2664 87.6567 70.0816 87.8371C69.8967 88.0174 69.7734 88.2013 69.7116 88.3887L68.9709 88.2178C69.0632 87.9067 69.2056 87.6563 69.3979 87.4665C69.5921 87.2743 69.8113 87.1307 70.0555 87.0357C70.3015 86.9383 70.5473 86.8752 70.7928 86.8465C70.9494 86.8282 71.1315 86.8263 71.3391 86.8406C71.5486 86.8526 71.7552 86.9046 71.9591 86.9966C72.165 87.0884 72.3449 87.2422 72.4989 87.458C72.6528 87.6739 72.7524 87.9754 72.7977 88.3627L73.1731 91.5752L72.4239 91.6628L72.3468 91.0025L72.3087 91.0069C72.2702 91.1187 72.1988 91.2418 72.0944 91.3763C71.99 91.5108 71.8443 91.6318 71.6574 91.7395C71.4705 91.8471 71.2352 91.9175 70.9516 91.9507ZM70.9873 91.2643C71.2836 91.2297 71.5265 91.1423 71.716 91.0022C71.9077 90.8618 72.0446 90.6935 72.1268 90.4973C72.2111 90.3008 72.2414 90.1009 72.2177 89.8978L72.1375 89.2121C72.1102 89.2539 72.0445 89.297 71.9403 89.3414C71.8379 89.3833 71.7183 89.4241 71.5813 89.4637C71.4462 89.501 71.3141 89.5357 71.1848 89.568C71.0575 89.5979 70.9542 89.6228 70.875 89.6428C70.6833 89.691 70.5061 89.7535 70.3435 89.8304C70.1827 89.905 70.057 90.0044 69.9665 90.1287C69.8777 90.2506 69.8445 90.4068 69.8668 90.5973C69.8972 90.8576 70.0165 91.0431 70.2246 91.154C70.4347 91.2624 70.6889 91.2992 70.9873 91.2643ZM69.805 86.4343L69.2179 86.4771C69.1801 86.1533 69.2412 85.878 69.4014 85.6512C69.5634 85.4221 69.7809 85.2915 70.0539 85.2596C70.1745 85.2455 70.2838 85.2542 70.3819 85.2857C70.4797 85.315 70.574 85.3512 70.6649 85.3942C70.7557 85.4372 70.848 85.4747 70.9419 85.5066C71.0376 85.5362 71.1426 85.5443 71.2568 85.5309C71.3775 85.5168 71.4736 85.4584 71.5453 85.3556C71.6188 85.2505 71.6477 85.1313 71.6322 84.998L72.2095 84.982C72.2481 85.3121 72.1856 85.5854 72.0221 85.8019C71.8608 86.0181 71.6436 86.1422 71.3706 86.1741C71.2246 86.1911 71.1016 86.1851 71.0017 86.156C70.9015 86.1248 70.8113 86.0871 70.731 86.0429C70.6508 85.9986 70.567 85.9612 70.4798 85.9306C70.3923 85.898 70.2883 85.8887 70.1676 85.9028C70.047 85.9169 69.952 85.9762 69.8828 86.0809C69.8153 86.1831 69.7894 86.3009 69.805 86.4343ZM76.5332 91.2855C76.093 91.3369 75.6945 91.2773 75.3378 91.1066C74.9832 90.9357 74.6907 90.6728 74.4605 90.3178C74.2323 89.9627 74.0888 89.5332 74.03 89.0296C73.9706 88.5217 74.0108 88.0675 74.1507 87.6672C74.2927 87.2666 74.5165 86.9423 74.8221 86.6942C75.1299 86.4459 75.5039 86.296 75.9441 86.2445C76.3842 86.1931 76.7816 86.2528 77.1363 86.4238C77.493 86.5944 77.7856 86.8584 78.014 87.2157C78.2445 87.5728 78.3894 88.0053 78.4488 88.5132C78.5076 89.0168 78.4659 89.4679 78.3237 89.8664C78.1836 90.2646 77.9597 90.5879 77.6519 90.8362C77.3463 91.0843 76.9734 91.2341 76.5332 91.2855ZM76.4545 90.6125C76.7889 90.5734 77.054 90.4556 77.2498 90.2589C77.4457 90.0623 77.5791 89.8182 77.6501 89.5268C77.7212 89.2353 77.7377 88.9266 77.6996 88.6007C77.6615 88.2748 77.5742 87.9772 77.4376 87.7078C77.301 87.4385 77.1146 87.2297 76.8785 87.0813C76.6423 86.933 76.3571 86.8784 76.0227 86.9175C75.6883 86.9566 75.4234 87.0755 75.2278 87.2743C75.0322 87.473 74.899 87.7192 74.8282 88.0128C74.7574 88.3064 74.741 88.6161 74.7791 88.942C74.8172 89.2679 74.9044 89.5645 75.0408 89.8317C75.1771 90.0989 75.3632 90.3057 75.5991 90.4519C75.835 90.598 76.1202 90.6516 76.4545 90.6125ZM80.8878 89.7726L80.8771 90.1214C80.8693 90.3669 80.8444 90.6315 80.8025 90.9153C80.7627 91.1988 80.7179 91.4668 80.668 91.7193C80.6182 91.9719 80.5763 92.173 80.5423 92.3229L79.9709 92.3897C79.9826 92.251 79.9977 92.068 80.0161 91.8406C80.0346 91.6132 80.05 91.3593 80.0623 91.079C80.0769 90.8006 80.0824 90.5168 80.0786 90.2276L80.0752 89.8676L80.8878 89.7726ZM35.1165 102.155L35.1907 102.79L32.6638 103.085L32.5896 102.45L35.1165 102.155ZM33.1896 101.196L33.9387 101.109L34.4819 105.756C34.5066 105.968 34.5558 106.123 34.6296 106.221C34.7052 106.318 34.7938 106.378 34.8953 106.403C34.9987 106.425 35.1055 106.43 35.2155 106.417C35.298 106.407 35.3653 106.395 35.4172 106.38C35.4689 106.364 35.5102 106.35 35.5412 106.34L35.7722 106.995C35.7236 107.02 35.655 107.048 35.5662 107.077C35.4777 107.109 35.3636 107.133 35.2239 107.149C35.0123 107.174 34.7996 107.153 34.5858 107.086C34.3741 107.018 34.1907 106.899 34.0356 106.728C33.8826 106.557 33.7896 106.33 33.7564 106.047L33.1896 101.196ZM38.817 106.768C38.3472 106.823 37.9298 106.767 37.5649 106.599C37.2018 106.429 36.9063 106.168 36.6784 105.815C36.4524 105.459 36.3102 105.032 36.2518 104.532C36.1935 104.033 36.233 103.582 36.3705 103.18C36.5098 102.775 36.731 102.447 37.0341 102.195C37.339 101.94 37.7115 101.787 38.1517 101.736C38.4057 101.706 38.6614 101.719 38.9189 101.775C39.1764 101.831 39.4179 101.942 39.6433 102.109C39.8685 102.273 40.0595 102.504 40.2165 102.801C40.3735 103.098 40.4786 103.474 40.5318 103.929L40.5689 104.247L36.8103 104.686L36.7347 104.038L39.7313 103.688C39.6992 103.413 39.6155 103.174 39.4802 102.971C39.347 102.768 39.1726 102.615 38.957 102.514C38.7435 102.412 38.5013 102.377 38.2304 102.409C37.932 102.444 37.6825 102.548 37.4818 102.722C37.283 102.893 37.1391 103.103 37.0502 103.351C36.9612 103.6 36.9325 103.859 36.9639 104.127L37.0143 104.559C37.0574 104.927 37.1573 105.232 37.3142 105.473C37.473 105.712 37.6745 105.885 37.9186 105.991C38.1625 106.096 38.4358 106.13 38.7384 106.095C38.9352 106.072 39.1098 106.024 39.262 105.95C39.4162 105.874 39.5449 105.773 39.6482 105.648C39.7513 105.52 39.8246 105.368 39.8683 105.191L40.6158 105.309C40.5683 105.564 40.4655 105.795 40.3074 106.002C40.149 106.207 39.9437 106.377 39.6912 106.511C39.4386 106.644 39.1472 106.73 38.817 106.768ZM41.9637 106.297L41.3939 101.421L42.1177 101.337L42.2037 102.073L42.2545 102.067C42.3152 101.816 42.4532 101.601 42.6684 101.424C42.8836 101.246 43.1373 101.141 43.4293 101.106C43.4843 101.1 43.5532 101.093 43.636 101.085C43.7188 101.078 43.7816 101.074 43.8244 101.073L43.9135 101.835C43.8873 101.832 43.828 101.829 43.7355 101.827C43.6449 101.822 43.5499 101.826 43.4504 101.838C43.2134 101.865 43.0076 101.94 42.833 102.061C42.6602 102.18 42.53 102.332 42.4424 102.518C42.3566 102.702 42.3266 102.904 42.3523 103.124L42.7129 106.21L41.9637 106.297ZM45.2897 105.909L44.7199 101.033L45.4436 100.948L45.5297 101.685L45.5805 101.679C45.6412 101.427 45.7792 101.213 45.9944 101.035C46.2096 100.858 46.4633 100.752 46.7553 100.718C46.8103 100.711 46.8792 100.704 46.962 100.697C47.0448 100.689 47.1076 100.685 47.1504 100.684L47.2395 101.446C47.2133 101.443 47.154 101.44 47.0615 101.438C46.9709 101.434 46.8759 101.437 46.7764 101.449C46.5394 101.477 46.3336 101.551 46.159 101.672C45.9862 101.791 45.856 101.944 45.7684 102.13C45.6826 102.314 45.6526 102.516 45.6783 102.736L46.0389 105.821L45.2897 105.909ZM48.6157 105.52L48.0459 100.644L48.795 100.557L49.3649 105.432L48.6157 105.52ZM48.3318 99.7869C48.1858 99.804 48.0541 99.769 47.9366 99.6819C47.8213 99.5945 47.7555 99.481 47.7392 99.3413C47.7229 99.2017 47.7607 99.076 47.8528 98.9644C47.947 98.8526 48.0671 98.7882 48.2131 98.7711C48.3591 98.754 48.4898 98.7892 48.6051 98.8765C48.7226 98.9636 48.7895 99.077 48.8058 99.2167C48.8221 99.3564 48.7832 99.4821 48.689 99.5939C48.5969 99.7055 48.4779 99.7699 48.3318 99.7869ZM52.2877 100.148L52.3619 100.783L49.8351 101.079L49.7609 100.444L52.2877 100.148ZM50.3608 99.1894L51.11 99.1019L51.6531 103.749C51.6778 103.961 51.727 104.116 51.8008 104.215C51.8764 104.311 51.965 104.371 52.0665 104.396C52.17 104.418 52.2767 104.423 52.3867 104.41C52.4693 104.4 52.5365 104.388 52.5884 104.374C52.6401 104.357 52.6814 104.343 52.7124 104.333L52.9434 104.988C52.8949 105.013 52.8262 105.041 52.7374 105.07C52.6489 105.102 52.5348 105.126 52.3951 105.143C52.1835 105.167 51.9708 105.146 51.757 105.079C51.5453 105.011 51.3619 104.892 51.2068 104.722C51.0539 104.551 50.9608 104.324 50.9277 104.04L50.3608 99.1894ZM55.9248 104.769C55.4846 104.82 55.0861 104.761 54.7294 104.59C54.3748 104.419 54.0823 104.156 53.8521 103.801C53.6239 103.446 53.4804 103.017 53.4216 102.513C53.3622 102.005 53.4024 101.551 53.5423 101.15C53.6843 100.75 53.9081 100.426 54.2137 100.177C54.5215 99.9291 54.8955 99.7792 55.3357 99.7278C55.7758 99.6764 56.1732 99.7361 56.5279 99.907C56.8846 100.078 57.1772 100.342 57.4056 100.699C57.6361 101.056 57.781 101.489 57.8404 101.996C57.8992 102.5 57.8575 102.951 57.7153 103.35C57.5752 103.748 57.3513 104.071 57.0435 104.319C56.7379 104.568 56.365 104.717 55.9248 104.769ZM55.8461 104.096C56.1805 104.057 56.4456 103.939 56.6414 103.742C56.8373 103.546 56.9707 103.302 57.0417 103.01C57.1128 102.719 57.1293 102.41 57.0912 102.084C57.0531 101.758 56.9658 101.46 56.8292 101.191C56.6926 100.922 56.5062 100.713 56.2701 100.565C56.0339 100.416 55.7487 100.362 55.4143 100.401C55.0799 100.44 54.815 100.559 54.6194 100.758C54.4238 100.956 54.2906 101.202 54.2198 101.496C54.149 101.79 54.1326 102.099 54.1707 102.425C54.2088 102.751 54.296 103.048 54.4324 103.315C54.5687 103.582 54.7548 103.789 54.9907 103.935C55.2266 104.081 55.5118 104.135 55.8461 104.096ZM54.9231 99.1711L55.5255 97.6076L56.4016 97.5052L55.5834 99.0939L54.9231 99.1711ZM59.2659 104.275L58.6961 99.3994L59.4198 99.3149L59.5059 100.051L59.5567 100.045C59.6174 99.7937 59.7553 99.5792 59.9706 99.4017C60.1858 99.2243 60.4394 99.1185 60.7315 99.0843C60.7865 99.0779 60.8554 99.0709 60.9382 99.0634C61.021 99.0559 61.0838 99.0518 61.1266 99.051L61.2156 99.8129C61.1895 99.8095 61.1302 99.8068 61.0377 99.8047C60.9471 99.8003 60.852 99.8039 60.7526 99.8155C60.5155 99.8432 60.3097 99.9177 60.1351 100.039C59.9624 100.158 59.8322 100.31 59.7445 100.496C59.6588 100.68 59.6287 100.882 59.6545 101.102L60.015 104.188L59.2659 104.275ZM62.5919 103.887L62.0221 99.0107L62.7712 98.9232L63.341 103.799L62.5919 103.887ZM62.308 98.1536C62.162 98.1706 62.0303 98.1356 61.9128 98.0485C61.7975 97.9612 61.7317 97.8477 61.7154 97.708C61.699 97.5683 61.7369 97.4427 61.829 97.3311C61.9232 97.2193 62.0433 97.1548 62.1893 97.1378C62.3353 97.1207 62.466 97.1558 62.5813 97.2432C62.6988 97.3303 62.7656 97.4437 62.782 97.5833C62.7983 97.723 62.7593 97.8488 62.6652 97.9606C62.5731 98.0722 62.454 98.1365 62.308 98.1536ZM66.7059 103.509C66.2657 103.56 65.8672 103.501 65.5105 103.33C65.1559 103.159 64.8634 102.896 64.6332 102.541C64.405 102.186 64.2615 101.757 64.2027 101.253C64.1433 100.745 64.1836 100.291 64.3234 99.8905C64.4654 99.49 64.6892 99.1656 64.9948 98.9175C65.3026 98.6692 65.6766 98.5193 66.1168 98.4679C66.557 98.4164 66.9544 98.4762 67.309 98.6471C67.6657 98.8178 67.9583 99.0818 68.1867 99.4391C68.4172 99.7961 68.5621 100.229 68.6215 100.736C68.6803 101.24 68.6387 101.691 68.4964 102.09C68.3564 102.488 68.1324 102.811 67.8247 103.06C67.519 103.308 67.1461 103.457 66.7059 103.509ZM66.6272 102.836C66.9616 102.797 67.2267 102.679 67.4225 102.482C67.6184 102.286 67.7518 102.042 67.8229 101.75C67.8939 101.459 67.9104 101.15 67.8723 100.824C67.8342 100.498 67.7469 100.201 67.6103 99.9312C67.4737 99.6618 67.2873 99.453 67.0512 99.3047C66.8151 99.1564 66.5298 99.1018 66.1954 99.1408C65.861 99.1799 65.5961 99.2988 65.4005 99.4976C65.2049 99.6964 65.0717 99.9425 65.0009 100.236C64.9301 100.53 64.9138 100.839 64.9518 101.165C64.9899 101.491 65.0771 101.788 65.2135 102.055C65.3498 102.322 65.536 102.529 65.7718 102.675C66.0077 102.821 66.2929 102.875 66.6272 102.836ZM71.0605 101.996L71.0498 102.345C71.042 102.59 71.0172 102.855 70.9752 103.139C70.9354 103.422 70.8906 103.69 70.8408 103.943C70.7909 104.195 70.749 104.396 70.715 104.546L70.1436 104.613C70.1553 104.474 70.1704 104.291 70.1888 104.064C70.2073 103.837 70.2227 103.583 70.235 103.302C70.2496 103.024 70.2551 102.74 70.2513 102.451L70.2479 102.091L71.0605 101.996ZM75.2802 104.257L74.4967 97.5529L75.2205 97.4683L75.311 98.2429L75.3999 98.2325C75.445 98.1414 75.5086 98.0246 75.5906 97.882C75.6745 97.737 75.8024 97.6019 75.9744 97.4767C76.1483 97.3491 76.394 97.2668 76.7114 97.2297C77.122 97.1817 77.4958 97.2421 77.833 97.4108C78.1702 97.5794 78.4487 97.8419 78.6683 98.198C78.888 98.5542 79.0278 98.9883 79.0876 99.5005C79.148 100.017 79.1125 100.475 78.9811 100.874C78.8495 101.271 78.6402 101.592 78.3534 101.836C78.0663 102.077 77.7195 102.222 77.3132 102.269C77 102.306 76.7432 102.283 76.5427 102.202C76.342 102.118 76.183 102.015 76.0659 101.894C75.9485 101.77 75.8571 101.667 75.7916 101.585L75.7282 101.592L76.0294 104.17L75.2802 104.257ZM75.5181 99.9048C75.5611 100.273 75.6531 100.592 75.7939 100.86C75.9345 101.127 76.1177 101.328 76.3437 101.462C76.5694 101.595 76.8325 101.643 77.133 101.608C77.4462 101.571 77.6979 101.458 77.8881 101.269C78.0802 101.077 78.2127 100.834 78.2856 100.54C78.3604 100.244 78.3775 99.9224 78.337 99.5753C78.2969 99.2325 78.2079 98.9297 78.0699 98.667C77.9338 98.4018 77.7506 98.2012 77.5202 98.0651C77.2916 97.9267 77.0186 97.876 76.7012 97.9131C76.3964 97.9487 76.1494 98.0559 75.96 98.2346C75.7704 98.4112 75.6388 98.6432 75.5652 98.9307C75.4912 99.2161 75.4756 99.5408 75.5181 99.9048ZM81.962 101.739C81.6531 101.775 81.3659 101.749 81.1004 101.663C80.8347 101.573 80.6148 101.426 80.4407 101.222C80.2664 101.015 80.1606 100.752 80.1235 100.435C80.0909 100.156 80.1195 99.9226 80.2092 99.7362C80.2987 99.5477 80.4298 99.393 80.6022 99.272C80.7747 99.151 80.9692 99.0532 81.1858 98.9786C81.4042 98.9016 81.6248 98.835 81.8478 98.7789C82.1396 98.7062 82.3765 98.6496 82.5584 98.609C82.7422 98.5661 82.8735 98.5153 82.9525 98.4567C83.0336 98.3979 83.067 98.3082 83.0529 98.1876L83.05 98.1622C83.0134 97.849 82.8992 97.6156 82.7075 97.4621C82.5179 97.3084 82.2507 97.2517 81.9057 97.292C81.5481 97.3338 81.2768 97.4448 81.092 97.6252C80.9071 97.8055 80.7838 97.9894 80.722 98.1768L79.9813 98.006C80.0736 97.6949 80.216 97.4444 80.4083 97.2546C80.6025 97.0624 80.8217 96.9188 81.0659 96.8238C81.3119 96.7264 81.5577 96.6633 81.8032 96.6347C81.9598 96.6164 82.1419 96.6144 82.3495 96.6287C82.559 96.6407 82.7656 96.6927 82.9694 96.7847C83.1754 96.8765 83.3553 97.0303 83.5093 97.2462C83.6632 97.462 83.7628 97.7635 83.808 98.1508L84.1835 101.363L83.4343 101.451L83.3572 100.791L83.3191 100.795C83.2806 100.907 83.2092 101.03 83.1048 101.164C83.0004 101.299 82.8547 101.42 82.6678 101.528C82.4809 101.635 82.2456 101.706 81.962 101.739ZM81.9977 101.052C82.294 101.018 82.5369 100.93 82.7264 100.79C82.9181 100.65 83.055 100.482 83.1372 100.285C83.2215 100.089 83.2518 99.8891 83.2281 99.6859L83.1479 99.0002C83.1206 99.042 83.0549 99.0851 82.9507 99.1295C82.8483 99.1715 82.7286 99.2123 82.5917 99.2519C82.4566 99.2891 82.3245 99.3239 82.1952 99.3561C82.0679 99.386 81.9646 99.411 81.8854 99.4309C81.6937 99.4791 81.5165 99.5416 81.3539 99.6186C81.1931 99.6931 81.0674 99.7925 80.9769 99.9168C80.8881 100.039 80.8549 100.195 80.8772 100.385C80.9076 100.646 81.0269 100.831 81.235 100.942C81.4451 101.051 81.6993 101.087 81.9977 101.052ZM85.5509 101.204L84.981 96.3276L85.7302 96.2401L86.3 101.116L85.5509 101.204ZM84.942 95.6629L85.5444 94.0994L86.4205 93.9971L85.6022 95.5857L84.942 95.6629ZM90.6837 96.7681L90.033 97.0372C89.9776 96.93 89.9024 96.8283 89.8075 96.7321C89.7145 96.6336 89.594 96.5576 89.4462 96.5041C89.2984 96.4505 89.1155 96.4365 88.8975 96.462C88.5991 96.4969 88.3585 96.5947 88.1756 96.7555C87.9946 96.914 87.9164 97.0979 87.9409 97.3074C87.9626 97.4937 88.0475 97.6328 88.1956 97.7249C88.3436 97.817 88.5658 97.8823 88.862 97.9206L89.6065 98.0138C90.0549 98.0686 90.3986 98.1926 90.6379 98.3856C90.8768 98.5764 91.0162 98.8422 91.056 99.183C91.0887 99.4623 91.0375 99.7214 90.9023 99.9603C90.7693 100.199 90.5674 100.398 90.2965 100.559C90.0257 100.719 89.7009 100.822 89.322 100.866C88.8247 100.924 88.4005 100.864 88.0493 100.686C87.6982 100.509 87.455 100.217 87.3198 99.8127L88.0101 99.5518C88.1085 99.8063 88.2595 99.9882 88.4632 100.097C88.669 100.206 88.9253 100.243 89.2322 100.207C89.5814 100.166 89.8499 100.06 90.0379 99.8876C90.2277 99.7131 90.3104 99.5211 90.2859 99.3116C90.2661 99.1423 90.1903 99.0074 90.0585 98.907C89.9263 98.8044 89.7342 98.7389 89.482 98.7105L88.6471 98.615C88.1882 98.5614 87.841 98.4357 87.6056 98.238C87.3719 98.0379 87.2355 97.7696 87.1961 97.4331C87.164 97.158 87.2128 96.9056 87.3426 96.6759C87.4744 96.446 87.6677 96.255 87.9224 96.1029C88.1792 95.9507 88.479 95.8545 88.8218 95.8144C89.3043 95.758 89.6955 95.8196 89.9953 95.999C90.2973 96.1783 90.5268 96.4346 90.6837 96.7681ZM92.8945 100.397C92.7379 100.415 92.5969 100.375 92.4717 100.276C92.3464 100.177 92.2746 100.049 92.2563 99.8922C92.238 99.7356 92.2784 99.5946 92.3774 99.4694C92.4765 99.3441 92.6043 99.2723 92.7609 99.254C92.9175 99.2357 93.0585 99.2761 93.1837 99.3751C93.309 99.4742 93.3808 99.602 93.3991 99.7586C93.4112 99.8623 93.3959 99.9607 93.3531 100.054C93.3125 100.146 93.2518 100.224 93.1713 100.287C93.0925 100.348 93.0003 100.384 92.8945 100.397ZM97.6867 99.7853L96.8613 99.8817L98.4887 93.1015L99.3014 93.0066L102.448 99.2288L101.623 99.3253L99.0406 94.0796L98.9898 94.0855L97.6867 99.7853ZM97.6946 97.2101L101.021 96.8213L101.103 97.5197L97.7762 97.9085L97.6946 97.2101ZM106.9 100.562L106.599 97.9844L106.535 97.9918C106.49 98.0871 106.425 98.2084 106.34 98.3557C106.254 98.5009 106.123 98.6374 105.947 98.7653C105.77 98.891 105.526 98.9721 105.212 99.0087C104.806 99.0562 104.435 98.9955 104.1 98.8266C103.765 98.6555 103.487 98.3919 103.268 98.0358C103.048 97.6775 102.908 97.2402 102.847 96.7238C102.788 96.2116 102.823 95.757 102.955 95.3597C103.087 94.9625 103.297 94.643 103.586 94.4011C103.876 94.1592 104.225 94.0143 104.636 93.9663C104.953 93.9292 105.21 93.9528 105.407 94.0371C105.605 94.119 105.761 94.221 105.874 94.3429C105.989 94.4625 106.078 94.5614 106.143 94.6396L106.232 94.6292L106.142 93.8547L106.865 93.7701L107.649 100.474L106.9 100.562ZM105.235 98.3239C105.536 98.2888 105.781 98.1808 105.97 97.9999C106.159 97.817 106.291 97.5795 106.366 97.2876C106.441 96.9935 106.457 96.6623 106.414 96.2941C106.371 95.9301 106.281 95.6178 106.144 95.3572C106.006 95.0944 105.824 94.899 105.599 94.7708C105.373 94.6406 105.108 94.5933 104.803 94.6289C104.486 94.666 104.231 94.7784 104.038 94.966C103.848 95.1514 103.716 95.3888 103.642 95.6784C103.571 95.9657 103.555 96.2807 103.595 96.6235C103.636 96.9706 103.725 97.2797 103.864 97.551C104.005 97.8198 104.19 98.0256 104.419 98.1683C104.65 98.3086 104.922 98.3605 105.235 98.3239ZM111.647 96.1331L111.31 93.2507L112.059 93.1632L112.629 98.0391L111.879 98.1266L111.783 97.3013L111.732 97.3072C111.647 97.5682 111.494 97.7995 111.273 98.0012C111.052 98.2008 110.757 98.3222 110.389 98.3652C110.084 98.4008 109.805 98.3658 109.553 98.2602C109.3 98.1524 109.09 97.971 108.923 97.716C108.755 97.4588 108.647 97.1228 108.599 96.708L108.237 93.6098L108.986 93.5223L109.342 96.5697C109.384 96.9252 109.516 97.1972 109.74 97.3856C109.966 97.5737 110.234 97.6496 110.545 97.6132C110.731 97.5915 110.915 97.5217 111.097 97.404C111.28 97.286 111.426 97.1209 111.534 96.9088C111.645 96.6964 111.682 96.4378 111.647 96.1331ZM114.001 97.8787L113.431 93.0028L114.18 92.9152L114.75 97.7912L114.001 97.8787ZM113.717 92.1456C113.571 92.1627 113.439 92.1277 113.322 92.0406C113.206 91.9532 113.141 91.8397 113.124 91.7C113.108 91.5604 113.146 91.4347 113.238 91.3232C113.332 91.2113 113.452 91.1469 113.598 91.1298C113.744 91.1128 113.875 91.1479 113.99 91.2352C114.108 91.3223 114.175 91.4357 114.191 91.5754C114.207 91.7151 114.168 91.8408 114.074 91.9527C113.982 92.0642 113.863 92.1286 113.717 92.1456ZM116.674 97.6178C116.517 97.6361 116.376 97.5957 116.251 97.4967C116.126 97.3976 116.054 97.2698 116.036 97.1132C116.018 96.9566 116.058 96.8156 116.157 96.6903C116.256 96.5651 116.384 96.4933 116.54 96.475C116.697 96.4567 116.838 96.4971 116.963 96.5961C117.089 96.6952 117.16 96.823 117.179 96.9796C117.191 97.0833 117.175 97.1816 117.133 97.2746C117.092 97.3673 117.031 97.4452 116.951 97.5082C116.872 97.5689 116.78 97.6054 116.674 97.6178ZM116.251 93.9989C116.095 94.0172 115.954 93.9769 115.828 93.8778C115.703 93.7788 115.631 93.6509 115.613 93.4943C115.595 93.3377 115.635 93.1968 115.734 93.0715C115.833 92.9462 115.961 92.8745 116.118 92.8562C116.274 92.8379 116.415 92.8782 116.54 92.9773C116.666 93.0763 116.737 93.2042 116.756 93.3608C116.768 93.4645 116.753 93.5628 116.71 93.6557C116.669 93.7484 116.608 93.8263 116.528 93.8894C116.449 93.9501 116.357 93.9866 116.251 93.9989ZM36.2908 118.151C35.9818 118.187 35.6946 118.162 35.4292 118.075C35.1635 117.986 34.9436 117.839 34.7695 117.634C34.5951 117.427 34.4894 117.165 34.4523 116.847C34.4197 116.568 34.4482 116.335 34.538 116.149C34.6275 115.96 34.7585 115.805 34.931 115.684C35.1035 115.563 35.298 115.465 35.5145 115.391C35.7329 115.314 35.9536 115.247 36.1766 115.191C36.4684 115.118 36.7053 115.062 36.8872 115.021C37.0709 114.978 37.2023 114.928 37.2812 114.869C37.3623 114.81 37.3958 114.72 37.3817 114.6L37.3788 114.574C37.3421 114.261 37.228 114.028 37.0363 113.874C36.8467 113.721 36.5794 113.664 36.2345 113.704C35.8768 113.746 35.6056 113.857 35.4207 114.037C35.2359 114.218 35.1126 114.402 35.0508 114.589L34.31 114.418C34.4024 114.107 34.5447 113.857 34.7371 113.667C34.9313 113.475 35.1505 113.331 35.3946 113.236C35.6407 113.139 35.8864 113.076 36.1319 113.047C36.2885 113.029 36.4706 113.027 36.6783 113.041C36.8877 113.053 37.0944 113.105 37.2982 113.197C37.5042 113.289 37.6841 113.443 37.838 113.658C37.992 113.874 38.0916 114.176 38.1368 114.563L38.5123 117.776L37.7631 117.863L37.6859 117.203L37.6478 117.207C37.6094 117.319 37.538 117.442 37.4336 117.577C37.3292 117.711 37.1835 117.832 36.9966 117.94C36.8096 118.048 36.5744 118.118 36.2908 118.151ZM36.3264 117.465C36.6227 117.43 36.8656 117.343 37.0552 117.203C37.2469 117.062 37.3838 116.894 37.466 116.698C37.5503 116.501 37.5806 116.301 37.5568 116.098L37.4767 115.413C37.4494 115.454 37.3836 115.497 37.2794 115.542C37.1771 115.584 37.0574 115.625 36.9205 115.664C36.7854 115.701 36.6532 115.736 36.524 115.768C36.3966 115.798 36.2934 115.823 36.2142 115.843C36.0224 115.891 35.8453 115.954 35.6826 116.031C35.5219 116.105 35.3962 116.205 35.3056 116.329C35.2169 116.451 35.1837 116.607 35.2059 116.798C35.2364 117.058 35.3556 117.244 35.5638 117.354C35.7738 117.463 36.0281 117.5 36.3264 117.465ZM43.9445 112.198L44.0187 112.833L41.4918 113.128L41.4176 112.494L43.9445 112.198ZM42.0176 111.239L42.7667 111.152L43.3098 115.799C43.3346 116.011 43.3838 116.166 43.4575 116.265C43.5332 116.361 43.6217 116.421 43.7233 116.446C43.8267 116.468 43.9334 116.473 44.0435 116.46C44.126 116.45 44.1933 116.438 44.2452 116.423C44.2968 116.407 44.3382 116.393 44.3692 116.383L44.6002 117.038C44.5516 117.063 44.483 117.091 44.3942 117.12C44.3057 117.152 44.1916 117.176 44.0519 117.193C43.8403 117.217 43.6275 117.196 43.4137 117.129C43.2021 117.061 43.0187 116.942 42.8636 116.772C42.7106 116.601 42.6176 116.373 42.5844 116.09L42.0176 111.239ZM47.645 116.811C47.1752 116.866 46.7578 116.81 46.3929 116.642C46.0298 116.472 45.7343 116.211 45.5064 115.858C45.2804 115.502 45.1382 115.075 45.0798 114.575C45.0214 114.076 45.061 113.625 45.1985 113.223C45.3378 112.818 45.559 112.49 45.8621 112.238C46.167 111.984 46.5395 111.831 46.9797 111.779C47.2337 111.75 47.4894 111.763 47.7469 111.818C48.0044 111.874 48.2458 111.985 48.4713 112.152C48.6964 112.317 48.8875 112.547 49.0445 112.844C49.2015 113.141 49.3066 113.517 49.3597 113.972L49.3968 114.29L45.6383 114.729L45.5627 114.081L48.5593 113.731C48.5272 113.456 48.4434 113.217 48.3082 113.014C48.175 112.811 48.0006 112.658 47.785 112.557C47.5715 112.455 47.3292 112.421 47.0584 112.452C46.76 112.487 46.5104 112.591 46.3098 112.765C46.111 112.936 45.9671 113.146 45.8782 113.395C45.7892 113.643 45.7605 113.902 45.7919 114.17L45.8423 114.602C45.8854 114.97 45.9853 115.275 46.1422 115.516C46.301 115.755 46.5025 115.928 46.7466 116.035C46.9905 116.139 47.2637 116.174 47.5664 116.138C47.7632 116.115 47.9377 116.067 48.09 115.993C48.2442 115.917 48.3729 115.817 48.4762 115.691C48.5792 115.563 48.6526 115.411 48.6963 115.234L49.4438 115.353C49.3963 115.607 49.2935 115.838 49.1354 116.045C48.977 116.25 48.7716 116.42 48.5192 116.555C48.2666 116.687 47.9752 116.773 47.645 116.811ZM50.7917 116.341L50.2219 111.465L50.9456 111.38L51.0317 112.117L51.0825 112.111C51.1432 111.859 51.2811 111.644 51.4964 111.467C51.7116 111.289 51.9652 111.184 52.2573 111.15C52.3123 111.143 52.3812 111.136 52.464 111.129C52.5468 111.121 52.6096 111.117 52.6524 111.116L52.7414 111.878C52.7153 111.875 52.656 111.872 52.5635 111.87C52.4729 111.866 52.3779 111.869 52.2784 111.881C52.0414 111.908 51.8355 111.983 51.6609 112.104C51.4882 112.223 51.358 112.376 51.2704 112.562C51.1846 112.745 51.1545 112.947 51.1803 113.167L51.5409 116.253L50.7917 116.341ZM54.1177 115.952L53.5479 111.076L54.2716 110.991L54.3577 111.728L54.4085 111.722C54.4692 111.47 54.6071 111.256 54.8224 111.078C55.0376 110.901 55.2912 110.795 55.5833 110.761C55.6383 110.754 55.7072 110.747 55.79 110.74C55.8728 110.732 55.9356 110.728 55.9784 110.728L56.0674 111.489C56.0413 111.486 55.982 111.483 55.8895 111.481C55.7989 111.477 55.7038 111.48 55.6044 111.492C55.3674 111.52 55.1615 111.594 54.9869 111.715C54.8142 111.834 54.684 111.987 54.5964 112.173C54.5106 112.357 54.4805 112.559 54.5063 112.779L54.8669 115.864L54.1177 115.952ZM58.8919 115.51C58.5829 115.546 58.2957 115.52 58.0303 115.433C57.7646 115.344 57.5447 115.197 57.3706 114.993C57.1962 114.785 57.0905 114.523 57.0534 114.206C57.0207 113.926 57.0493 113.694 57.1391 113.507C57.2286 113.319 57.3596 113.164 57.5321 113.043C57.7046 112.922 57.8991 112.824 58.1156 112.75C58.334 112.673 58.5547 112.606 58.7777 112.55C59.0695 112.477 59.3063 112.421 59.4882 112.38C59.672 112.337 59.8034 112.286 59.8823 112.228C59.9634 112.169 59.9969 112.079 59.9828 111.959L59.9798 111.933C59.9432 111.62 59.8291 111.387 59.6374 111.233C59.4478 111.079 59.1805 111.023 58.8356 111.063C58.4779 111.105 58.2067 111.216 58.0218 111.396C57.8369 111.577 57.7136 111.76 57.6519 111.948L56.9111 111.777C57.0035 111.466 57.1458 111.215 57.3381 111.026C57.5324 110.833 57.7515 110.69 57.9957 110.595C58.2417 110.497 58.4875 110.434 58.733 110.406C58.8896 110.387 59.0717 110.385 59.2793 110.4C59.4888 110.412 59.6955 110.464 59.8993 110.556C60.1052 110.647 60.2852 110.801 60.4391 111.017C60.593 111.233 60.6926 111.535 60.7379 111.922L61.1133 115.134L60.3642 115.222L60.287 114.562L60.2489 114.566C60.2105 114.678 60.1391 114.801 60.0346 114.935C59.9302 115.07 59.7846 115.191 59.5976 115.299C59.4107 115.406 59.1755 115.477 58.8919 115.51ZM58.9275 114.823C59.2238 114.789 59.4667 114.701 59.6563 114.561C59.8479 114.421 59.9849 114.253 60.0671 114.056C60.1514 113.86 60.1816 113.66 60.1579 113.457L60.0778 112.771C60.0505 112.813 59.9847 112.856 59.8805 112.9C59.7781 112.942 59.6585 112.983 59.5215 113.023C59.3864 113.06 59.2543 113.095 59.1251 113.127C58.9977 113.157 58.8944 113.182 58.8152 113.202C58.6235 113.25 58.4463 113.313 58.2837 113.39C58.123 113.464 57.9973 113.564 57.9067 113.688C57.818 113.81 57.7847 113.966 57.807 114.156C57.8374 114.417 57.9567 114.602 58.1649 114.713C58.3749 114.822 58.6291 114.858 58.9275 114.823ZM63.0326 114.961C62.876 114.98 62.7351 114.939 62.6098 114.84C62.4846 114.741 62.4128 114.613 62.3945 114.457C62.3762 114.3 62.4165 114.159 62.5156 114.034C62.6146 113.909 62.7425 113.837 62.8991 113.819C63.0557 113.8 63.1966 113.841 63.3219 113.94C63.4472 114.039 63.519 114.167 63.5373 114.323C63.5494 114.427 63.534 114.525 63.4913 114.618C63.4506 114.711 63.39 114.789 63.3094 114.852C63.2307 114.913 63.1384 114.949 63.0326 114.961ZM65.4944 114.674C65.3378 114.692 65.1969 114.652 65.0716 114.553C64.9463 114.454 64.8745 114.326 64.8562 114.169C64.8379 114.013 64.8783 113.872 64.9774 113.746C65.0764 113.621 65.2042 113.549 65.3608 113.531C65.5174 113.513 65.6584 113.553 65.7837 113.652C65.9089 113.751 65.9807 113.879 65.999 114.036C66.0111 114.139 65.9958 114.238 65.953 114.331C65.9124 114.423 65.8518 114.501 65.7712 114.564C65.6925 114.625 65.6002 114.661 65.4944 114.674ZM67.9562 114.386C67.7996 114.404 67.6586 114.364 67.5333 114.265C67.4081 114.166 67.3363 114.038 67.318 113.881C67.2997 113.725 67.3401 113.584 67.4391 113.459C67.5382 113.333 67.666 113.262 67.8226 113.243C67.9792 113.225 68.1201 113.265 68.2454 113.364C68.3707 113.463 68.4425 113.591 68.4608 113.748C68.4729 113.852 68.4576 113.95 68.4148 114.043C68.3742 114.136 68.3135 114.213 68.233 114.277C68.1542 114.337 68.062 114.374 67.9562 114.386Z" fill="#191919"/>
<path d="M32.1925 68.3441L32.8174 73.5819L31.1151 73.7808L30.4328 67.9426C30.3989 67.6526 30.3505 67.4026 30.2876 67.1927C30.2243 66.9786 30.1385 66.7734 30.0304 66.5773C29.9217 66.377 29.7812 66.159 29.6089 65.9236C29.4775 65.7472 29.2652 65.4801 28.972 65.1224C28.6783 64.7605 28.304 64.31 27.8491 63.771L29.7972 63.5433L30.3752 64.2235C30.6232 64.5226 30.8331 64.7878 31.005 65.0191C31.1769 65.2503 31.3214 65.4657 31.4384 65.665C31.5813 65.9039 31.6953 66.1313 31.7801 66.3472C31.8692 66.5626 31.9437 66.7989 32.0036 67.0561C32.2012 66.9606 32.3625 66.8458 32.4874 66.7119C32.6124 66.578 32.7062 66.3967 32.7689 66.1678C32.8175 66.0002 32.8498 65.8026 32.8658 65.5749C32.8818 65.3472 32.8845 65.0785 32.8738 64.7687L32.8235 63.1897L34.5762 62.9848L34.6334 64.7867C34.6491 65.3217 34.6097 65.7865 34.5152 66.181C34.4249 66.575 34.2668 66.9173 34.0408 67.2078C33.6664 67.6862 33.0503 68.0649 32.1925 68.3441ZM40.2031 70.8846C40.1864 70.7417 40.2207 70.6162 40.3061 70.5083C40.3915 70.4003 40.5056 70.338 40.6485 70.3213C40.7915 70.3046 40.9171 70.341 41.0256 70.4306C41.1341 70.5202 41.1962 70.6322 41.2119 70.7667C41.2276 70.9012 41.1909 71.0248 41.1018 71.1374C41.0127 71.2501 40.9009 71.3143 40.7664 71.33C40.6319 71.3457 40.5083 71.3091 40.3957 71.22C40.2835 71.1351 40.2193 71.0233 40.2031 70.8846ZM41.6658 70.7136C41.6491 70.5707 41.6834 70.4453 41.7688 70.3373C41.8542 70.2294 41.9641 70.1675 42.0986 70.1518C42.2415 70.1351 42.367 70.1694 42.475 70.2548C42.5829 70.3402 42.6453 70.4543 42.662 70.5972C42.6787 70.7401 42.6422 70.8658 42.5526 70.9743C42.4631 71.0827 42.351 71.1448 42.2165 71.1606C42.082 71.1763 41.9605 71.1393 41.8521 71.0498C41.7436 70.9602 41.6815 70.8481 41.6658 70.7136ZM41.0807 72.1049C41.065 71.9704 41.1019 71.8489 41.1915 71.7405C41.281 71.632 41.3931 71.5699 41.5276 71.5542C41.6621 71.5385 41.7854 71.5731 41.8976 71.658C42.0098 71.7428 42.0737 71.8525 42.0894 71.987C42.1052 72.1215 42.0685 72.2451 41.9794 72.3578C41.8945 72.47 41.7827 72.5342 41.644 72.5504C41.5011 72.5671 41.3754 72.5306 41.2669 72.4411C41.1585 72.3515 41.0964 72.2394 41.0807 72.1049ZM41.688 65.4897L42.2178 70.0228L40.5092 70.2225L39.9779 65.6768C39.9018 65.0253 39.708 64.5878 39.3964 64.3643C39.0885 64.1361 38.6046 64.0606 37.9447 64.1377L35.322 64.4443L35.1437 62.9185L37.8673 62.6002C38.6953 62.5034 39.3724 62.5372 39.8987 62.7015C40.4286 62.8611 40.8353 63.1694 41.1187 63.6262C41.4059 64.0784 41.5957 64.6995 41.688 65.4897ZM47.9425 70.8301L48.0287 71.5678L47.3351 71.6488L47.2489 70.9111L46.5491 70.9929L46.471 70.3246L48.539 70.083L48.6171 70.7513L47.9425 70.8301ZM45.5574 67.3191L45.4332 69.6471L43.6679 69.8534L43.8924 67.1813C43.9593 66.4407 44.0378 65.9096 44.128 65.588C44.2178 65.2622 44.3445 64.9982 44.5084 64.7958C44.6759 64.5888 44.9173 64.3944 45.2327 64.2127L43.1255 61.9857L45.1934 61.744L48.1602 64.9826C48.397 64.7121 48.5658 64.4069 48.6667 64.067C48.7676 63.7272 48.8153 63.2785 48.8098 62.721L48.7808 61.3248L50.5209 61.1214L50.5442 62.6333C50.5476 63.0633 50.5075 63.4493 50.4239 63.7914C50.3659 64.0239 50.2875 64.2461 50.1887 64.4579C50.0894 64.6655 49.9537 64.8901 49.7817 65.1318C49.6134 65.3688 49.3863 65.6488 49.1002 65.972L51.8262 68.8999L49.7709 69.1401L46.1149 65.1449C45.9074 65.3012 45.7698 65.5091 45.7021 65.7683C45.6706 65.8998 45.6422 66.0949 45.6171 66.3535C45.5919 66.612 45.572 66.9339 45.5574 67.3191ZM57.0087 69.7706L57.0949 70.5082L56.4014 70.5893L56.3152 69.8516L55.6153 69.9334L55.5372 69.2651L57.6052 69.0234L57.6833 69.6917L57.0087 69.7706ZM59.2341 63.4392L59.7639 67.9723L58.0553 68.172L57.5241 63.6262C57.4489 62.9832 57.2595 62.5473 56.9558 62.3186C56.6517 62.0857 56.1613 62.0089 55.4845 62.0879L52.288 62.4615L52.1097 60.9357L55.4134 60.5497C56.2414 60.4529 56.9186 60.4867 57.4448 60.651C57.9752 60.8148 58.3821 61.1251 58.6656 61.582C58.9528 62.0341 59.1423 62.6532 59.2341 63.4392ZM54.2969 63.7925L54.8525 68.5463L53.1502 68.7452L52.5947 63.9914L54.2969 63.7925ZM62.3139 68.3006C62.2977 68.1619 62.3341 68.0362 62.4232 67.9235C62.5086 67.8156 62.6206 67.7535 62.7593 67.7373C62.9022 67.7206 63.0279 67.757 63.1364 67.8466C63.2448 67.9362 63.3069 68.0482 63.3226 68.1827C63.3383 68.3172 63.3014 68.4387 63.2118 68.5471C63.1223 68.6556 63.0102 68.7177 62.8757 68.7334C62.7412 68.7491 62.6179 68.7146 62.5057 68.6297C62.3935 68.5448 62.3296 68.4351 62.3139 68.3006ZM62.4664 69.6057C62.4497 69.4628 62.4861 69.3371 62.5757 69.2286C62.6653 69.1202 62.7773 69.0581 62.9118 69.0423C63.0463 69.0266 63.1699 69.0633 63.2826 69.1524C63.3952 69.2415 63.4594 69.3533 63.4751 69.4878C63.4909 69.6223 63.4542 69.7459 63.3651 69.8585C63.2802 69.9707 63.1684 70.0349 63.0297 70.0511C62.8868 70.0678 62.7614 70.0335 62.6534 69.9481C62.5454 69.8627 62.4831 69.7486 62.4664 69.6057ZM62.6765 59.7009L63.5909 67.525L61.8886 67.724L60.9742 59.8998L62.6765 59.7009Z" fill="#191919"/>
<path d="M25.141 38.3867L25.0086 37.2534L30.348 36.6294L30.4804 37.7627L28.4901 37.9953L29.1174 43.3632L27.7587 43.522L27.1314 38.1541L25.141 38.3867ZM33.4878 42.949C32.9862 43.0076 32.5426 42.9565 32.157 42.7956C31.7733 42.6324 31.4621 42.3749 31.2237 42.023C30.9849 41.6691 30.8355 41.235 30.7754 40.7207C30.7168 40.2192 30.7627 39.7676 30.9132 39.366C31.0636 38.9645 31.3031 38.6372 31.6318 38.3843C31.9626 38.1311 32.3672 37.9766 32.8454 37.9207C33.1671 37.8831 33.4726 37.8999 33.762 37.9712C34.0532 38.0402 34.3145 38.1652 34.5459 38.3462C34.7794 38.527 34.9725 38.7661 35.1253 39.0636C35.2778 39.359 35.3783 39.7141 35.4267 40.1289L35.4701 40.5003L31.3529 40.9814L31.255 40.1434L34.0993 39.811C34.0765 39.6163 34.014 39.4488 33.9118 39.3084C33.8096 39.168 33.6784 39.0643 33.5183 38.9972C33.36 38.9278 33.1825 38.9045 32.9856 38.9275C32.7804 38.9515 32.6039 39.0204 32.4563 39.1342C32.3106 39.2456 32.2026 39.3859 32.1322 39.555C32.0617 39.722 32.0366 39.9019 32.057 40.0947L32.1501 40.8915C32.1783 41.1328 32.2471 41.336 32.3565 41.5013C32.468 41.6663 32.6119 41.7868 32.7881 41.8627C32.9643 41.9387 33.1656 41.9634 33.392 41.9369C33.5423 41.9194 33.6774 41.8821 33.7973 41.8252C33.9172 41.7683 34.0167 41.6923 34.0956 41.5973C34.1746 41.5023 34.2302 41.3906 34.2625 41.2625L35.5228 41.1988C35.4945 41.5068 35.395 41.7844 35.2244 42.0317C35.0556 42.2767 34.8241 42.4796 34.5297 42.6406C34.2372 42.7992 33.8899 42.902 33.4878 42.949ZM37.0701 37.4913L38.1645 39.0914L38.8827 37.2795L40.2699 37.1174L39.1422 39.7204L40.8778 41.9888L39.4969 42.1502L38.3381 40.577L37.5891 42.3732L36.1924 42.5364L37.355 39.9293L35.6733 37.6546L37.0701 37.4913ZM43.6665 36.7204L43.7852 37.7362L40.8489 38.0794L40.7302 37.0636L43.6665 36.7204ZM41.2603 35.8175L42.6126 35.6594L43.1438 40.2052C43.1584 40.3301 43.1889 40.4252 43.2351 40.4906C43.2811 40.5539 43.3396 40.5953 43.4105 40.6149C43.4836 40.6342 43.5656 40.6386 43.6566 40.628C43.7201 40.6205 43.783 40.6078 43.8452 40.5898C43.9072 40.5697 43.9548 40.5545 43.9879 40.5442L44.3182 41.5256C44.2529 41.5547 44.1605 41.5902 44.041 41.632C43.9217 41.676 43.7746 41.7114 43.5997 41.7383C43.2753 41.7891 42.9845 41.7791 42.7274 41.7083C42.4724 41.6373 42.265 41.5049 42.105 41.3113C41.9451 41.1176 41.8475 40.8608 41.8123 40.541L41.2603 35.8175ZM47.279 41.3373C46.786 41.3949 46.3473 41.34 45.963 41.1725C45.5806 41.0027 45.2701 40.7408 45.0314 40.3868C44.7924 40.0308 44.6437 39.603 44.5854 39.1036C44.5265 38.5999 44.5724 38.1484 44.7231 37.7489C44.8735 37.3473 45.1153 37.0209 45.4485 36.7696C45.7835 36.5159 46.1976 36.3603 46.6907 36.3026C47.1838 36.245 47.6215 36.3011 48.0039 36.471C48.3881 36.6384 48.6997 36.9002 48.9387 37.2562C49.1774 37.6102 49.3262 38.039 49.3851 38.5427C49.4435 39.0421 49.3974 39.4926 49.247 39.8942C49.0963 40.2936 48.8535 40.6202 48.5184 40.8739C48.1853 41.1252 47.7721 41.2796 47.279 41.3373ZM47.163 40.289C47.3873 40.2628 47.5672 40.1774 47.7026 40.0328C47.8378 39.8862 47.9305 39.6973 47.9807 39.4662C48.033 39.2348 48.0426 38.9774 48.0095 38.6938C47.9763 38.4102 47.9076 38.1619 47.8033 37.9488C47.7012 37.7355 47.5674 37.5731 47.4021 37.4616C47.2368 37.35 47.0419 37.3074 46.8176 37.3336C46.5911 37.3601 46.4082 37.4469 46.2688 37.594C46.1315 37.7409 46.0367 37.93 45.9844 38.1614C45.9342 38.3925 45.9256 38.6499 45.9588 38.9334C45.9919 39.217 46.0596 39.4655 46.1617 39.6788C46.266 39.8918 46.4019 40.054 46.5693 40.1653C46.7386 40.2742 46.9365 40.3154 47.163 40.289ZM54.8302 40.4548C54.3371 40.5124 53.8984 40.4575 53.5142 40.29C53.1318 40.1202 52.8212 39.8583 52.5825 39.5044C52.3436 39.1483 52.1949 38.7206 52.1365 38.2211C52.0777 37.7174 52.1236 37.2659 52.2742 36.8664C52.4247 36.4649 52.6665 36.1384 52.9996 35.8871C53.3347 35.6334 53.7487 35.4778 54.2418 35.4202C54.7349 35.3625 55.1727 35.4186 55.555 35.5885C55.9393 35.7559 56.2509 36.0177 56.4899 36.3738C56.7286 36.7277 56.8774 37.1565 56.9362 37.6602C56.9946 38.1596 56.9486 38.6101 56.7982 39.0117C56.6475 39.4112 56.4046 39.7377 56.0696 39.9914C55.7364 40.2427 55.3233 40.3972 54.8302 40.4548ZM54.7141 39.4065C54.9384 39.3803 55.1183 39.2949 55.2537 39.1504C55.3889 39.0037 55.4816 38.8148 55.5318 38.5837C55.5841 38.3524 55.5937 38.0949 55.5606 37.8113C55.5275 37.5277 55.4588 37.2794 55.3545 37.0664C55.2523 36.853 55.1186 36.6906 54.9532 36.5791C54.7879 36.4676 54.5931 36.4249 54.3687 36.4511C54.1423 36.4776 53.9594 36.5644 53.82 36.7115C53.6827 36.8584 53.5879 37.0476 53.5355 37.2789C53.4853 37.51 53.4768 37.7674 53.5099 38.051C53.5431 38.3345 53.6107 38.583 53.7129 38.7963C53.8171 39.0094 53.953 39.1715 54.1205 39.2828C54.2898 39.3917 54.4877 39.433 54.7141 39.4065ZM58.0982 39.9763L57.5284 35.1004L58.8395 34.9472L58.9389 35.798L58.9897 35.792C59.0432 35.479 59.1657 35.233 59.3571 35.054C59.5483 34.873 59.7804 34.7665 60.0534 34.7346C60.1212 34.7266 60.1947 34.7223 60.274 34.7217C60.3533 34.721 60.4234 34.7246 60.4844 34.7325L60.6246 35.9324C60.5589 35.9208 60.4691 35.9141 60.3552 35.9124C60.2413 35.9107 60.1378 35.9153 60.0447 35.9262C59.8457 35.9494 59.6731 36.0136 59.5266 36.1186C59.382 36.2213 59.2731 36.3542 59.1999 36.5172C59.1288 36.68 59.1049 36.8608 59.1282 37.0597L59.4505 39.8183L58.0982 39.9763ZM61.756 39.5489L61.1861 34.673L62.5384 34.5149L63.1083 39.3908L61.756 39.5489ZM61.792 33.965C61.591 33.9885 61.4107 33.942 61.2512 33.8255C61.0936 33.7067 61.0038 33.553 60.9818 33.3647C60.96 33.1785 61.0122 33.0104 61.1384 32.8605C61.2665 32.7082 61.4311 32.6204 61.6321 32.5969C61.8332 32.5734 62.0125 32.6211 62.1701 32.7399C62.3296 32.8564 62.4202 33.0078 62.442 33.194C62.464 33.3824 62.411 33.5527 62.2829 33.705C62.1567 33.8549 61.9931 33.9416 61.792 33.965ZM66.6138 40.9376C66.1757 40.9888 65.793 40.9724 65.4657 40.8883C65.1408 40.8062 64.8743 40.6732 64.6662 40.4895C64.458 40.3057 64.3115 40.089 64.2266 39.8394L65.4576 39.5249C65.5071 39.6178 65.578 39.7018 65.6705 39.7768C65.7629 39.8518 65.8798 39.9068 66.0212 39.9417C66.1649 39.9786 66.3352 39.9855 66.532 39.9625C66.8262 39.9281 67.0601 39.8278 67.2337 39.6617C67.4097 39.4974 67.4782 39.248 67.4391 38.9137L67.3349 38.0217L67.2777 38.0283C67.2343 38.1707 67.1604 38.3091 67.056 38.4436C66.9516 38.5781 66.8107 38.6943 66.6334 38.7922C66.456 38.8902 66.2383 38.9543 65.9801 38.9844C65.614 39.0272 65.2708 38.9815 64.9505 38.8473C64.6321 38.7108 64.3634 38.4773 64.1446 38.1467C63.9276 37.8138 63.7876 37.3776 63.7246 36.8379C63.66 36.2856 63.696 35.8137 63.8326 35.4223C63.9693 35.031 64.176 34.7258 64.4529 34.5068C64.7319 34.2876 65.0502 34.157 65.4078 34.1152C65.6808 34.0833 65.9148 34.1032 66.1098 34.1748C66.3046 34.2443 66.4661 34.3412 66.5943 34.4657C66.7244 34.5878 66.8278 34.7108 66.9045 34.8349L66.9553 34.8289L66.8596 34.0099L68.2024 33.853L68.7778 38.7765C68.8263 39.1913 68.7652 39.5503 68.5947 39.8534C68.4242 40.1565 68.1672 40.3989 67.8238 40.5806C67.4827 40.7642 67.0794 40.8832 66.6138 40.9376ZM66.2899 37.9185C66.5079 37.8931 66.6857 37.8176 66.8234 37.6921C66.9629 37.5642 67.061 37.394 67.1176 37.1815C67.1762 36.9665 67.1888 36.7162 67.1554 36.4305C67.122 36.1448 67.0528 35.9019 66.9479 35.7018C66.8428 35.4996 66.7072 35.3492 66.5413 35.2506C66.3753 35.152 66.1833 35.1154 65.9653 35.1409C65.7431 35.1669 65.5629 35.2491 65.4246 35.3875C65.2861 35.5238 65.19 35.7024 65.1365 35.9232C65.0829 36.144 65.0723 36.393 65.1047 36.6702C65.1376 36.9517 65.2052 37.1905 65.3075 37.3866C65.4116 37.5803 65.5454 37.7245 65.7088 37.8191C65.874 37.9114 66.0677 37.9445 66.2899 37.9185ZM69.8484 38.6032L69.2785 33.7273L70.6308 33.5692L71.2007 38.4451L69.8484 38.6032ZM69.8844 33.0193C69.6834 33.0428 69.5031 32.9963 69.3436 32.8798C69.186 32.7609 69.0962 32.6073 69.0741 32.419C69.0524 32.2327 69.1046 32.0647 69.2308 31.9148C69.3589 31.7625 69.5235 31.6746 69.7245 31.6512C69.9256 31.6277 70.1049 31.6753 70.2625 31.7942C70.422 31.9107 70.5126 32.0621 70.5344 32.2483C70.5564 32.4367 70.5034 32.607 70.3753 32.7592C70.2491 32.9091 70.0854 32.9958 69.8844 33.0193ZM73.3068 35.3416L73.6362 38.1605L72.2839 38.3185L71.7141 33.4426L73.0029 33.292L73.1034 34.1523L73.1606 34.1456C73.2354 33.8494 73.3901 33.6039 73.6248 33.4092C73.8592 33.2123 74.1573 33.0927 74.5192 33.0504C74.8578 33.0109 75.1617 33.0504 75.4308 33.1691C75.7 33.2879 75.9205 33.4766 76.0923 33.7354C76.2639 33.9921 76.3718 34.3098 76.4161 34.6886L76.7789 37.7932L75.4266 37.9513L75.092 35.0879C75.0592 34.7893 74.9558 34.5654 74.7818 34.4163C74.6075 34.265 74.3849 34.2052 74.1141 34.2369C73.9321 34.2581 73.7758 34.3161 73.6453 34.4107C73.5169 34.5051 73.4223 34.632 73.3616 34.7914C73.3027 34.9484 73.2844 35.1318 73.3068 35.3416ZM79.2459 37.5982C78.9348 37.6346 78.6512 37.613 78.3953 37.5335C78.139 37.4519 77.9275 37.3125 77.7607 37.1154C77.5958 36.9158 77.4946 36.6552 77.457 36.3335C77.4253 36.0627 77.4485 35.8293 77.5264 35.6336C77.6044 35.4379 77.7225 35.2739 77.8808 35.1417C78.0391 35.0095 78.2239 34.9021 78.4352 34.8195C78.6487 34.7366 78.8746 34.6695 79.1132 34.618C79.3933 34.5552 79.6186 34.501 79.7892 34.4553C79.9595 34.4075 80.0807 34.3526 80.1529 34.2905C80.225 34.2285 80.255 34.1456 80.2429 34.0419L80.2406 34.0229C80.2171 33.8218 80.1355 33.6737 79.9956 33.5785C79.8579 33.483 79.6737 33.4488 79.443 33.4757C79.1997 33.5042 79.0123 33.5808 78.881 33.7055C78.7495 33.8282 78.6699 33.9726 78.6421 34.1389L77.3795 34.1835C77.4084 33.8798 77.5033 33.6091 77.6643 33.3715C77.8251 33.1317 78.0457 32.9365 78.3263 32.7857C78.6087 32.6326 78.9446 32.5333 79.334 32.4878C79.6049 32.4561 79.8679 32.4575 80.1229 32.4921C80.38 32.5264 80.6127 32.599 80.8208 32.7098C81.0311 32.8204 81.2046 32.9738 81.3412 33.1702C81.4776 33.3645 81.5628 33.6066 81.5966 33.8966L81.981 37.1853L80.6985 37.3351L80.6195 36.659L80.5814 36.6634C80.5209 36.825 80.4319 36.9716 80.3143 37.1033C80.1964 37.2329 80.0492 37.3413 79.8728 37.4284C79.6961 37.5134 79.4871 37.57 79.2459 37.5982ZM79.5241 36.6197C79.723 36.5964 79.8941 36.5368 80.0373 36.4406C80.1803 36.3424 80.2872 36.2205 80.3582 36.0749C80.4291 35.9294 80.4546 35.7709 80.4345 35.5994L80.3741 35.082C80.335 35.1145 80.2797 35.1467 80.2084 35.1786C80.1389 35.2082 80.0598 35.2378 79.971 35.2675C79.882 35.295 79.7928 35.3215 79.7036 35.347C79.614 35.3703 79.5329 35.3916 79.46 35.4109C79.304 35.4527 79.1697 35.5059 79.0572 35.5706C78.9446 35.6352 78.8606 35.7147 78.8051 35.8092C78.7494 35.9015 78.729 36.0111 78.7438 36.1381C78.7653 36.3222 78.8484 36.4552 78.9931 36.5369C79.1397 36.6163 79.3167 36.6439 79.5241 36.6197ZM83.6227 30.4034L84.3824 36.9046L83.0301 37.0627L82.2704 30.5614L83.6227 30.4034Z" fill="#606060"/>
</svg>
